<svg width="18" height="18" viewBox="0 0 18 18" fill="none" xmlns="http://www.w3.org/2000/svg">
<path d="M9.00006 0C7.01161 0.0021837 5.10522 0.793061 3.69917 2.19911C2.29312 3.60516 1.50224 5.51155 1.50006 7.5C1.50006 11.4615 7.80006 16.8997 8.51556 17.5072L9.00006 17.9167L9.48456 17.5072C10.2001 16.8997 16.5001 11.4615 16.5001 7.5C16.4979 5.51155 15.707 3.60516 14.3009 2.19911C12.8949 0.793061 10.9885 0.0021837 9.00006 0V0ZM9.00006 11.25C8.25838 11.25 7.53336 11.0301 6.91667 10.618C6.29999 10.206 5.81934 9.62029 5.53551 8.93506C5.25168 8.24984 5.17742 7.49584 5.32212 6.76841C5.46681 6.04098 5.82396 5.3728 6.34841 4.84835C6.87286 4.3239 7.54104 3.96675 8.26847 3.82206C8.9959 3.67736 9.7499 3.75162 10.4351 4.03545C11.1203 4.31928 11.706 4.79993 12.1181 5.41661C12.5301 6.0333 12.7501 6.75832 12.7501 7.5C12.7489 8.4942 12.3534 9.44733 11.6504 10.1503C10.9474 10.8533 9.99426 11.2488 9.00006 11.25Z" fill="#BEBEBE"/>
<path d="M9 9.75C10.2426 9.75 11.25 8.74264 11.25 7.5C11.25 6.25736 10.2426 5.25 9 5.25C7.75736 5.25 6.75 6.25736 6.75 7.5C6.75 8.74264 7.75736 9.75 9 9.75Z" fill="#BEBEBE"/>
</svg>
