<svg width="18" height="18" viewBox="0 0 18 18" fill="none" xmlns="http://www.w3.org/2000/svg">
<g clip-path="url(#clip0_807_112)">
<path d="M17.9998 1.49995V4.49995C17.9998 4.69886 17.9208 4.88963 17.7802 5.03028C17.6395 5.17093 17.4487 5.24995 17.2498 5.24995C17.0509 5.24995 16.8602 5.17093 16.7195 5.03028C16.5788 4.88963 16.4998 4.69886 16.4998 4.49995V2.5792L12.5248 6.53245C12.4574 6.6115 12.3743 6.67569 12.2808 6.72093C12.1872 6.76618 12.0853 6.79149 11.9815 6.79528C11.8777 6.79906 11.7742 6.78124 11.6776 6.74292C11.581 6.70461 11.4935 6.64665 11.4205 6.57271C11.3475 6.49877 11.2906 6.41048 11.2536 6.31342C11.2165 6.21636 11.2 6.11265 11.2051 6.00888C11.2102 5.90511 11.2368 5.80353 11.2832 5.71058C11.3297 5.61764 11.3949 5.53535 11.4748 5.46895L15.4573 1.49995H13.4998C13.3009 1.49995 13.1102 1.42093 12.9695 1.28028C12.8288 1.13963 12.7498 0.94886 12.7498 0.749947C12.7498 0.551035 12.8288 0.36027 12.9695 0.219617C13.1102 0.078965 13.3009 -5.26722e-05 13.4998 -5.26722e-05H16.4998C16.8977 -5.26722e-05 17.2792 0.157983 17.5605 0.439287C17.8418 0.720592 17.9998 1.10212 17.9998 1.49995ZM15.4911 11.1419C15.058 10.7299 14.4829 10.5005 13.8852 10.5013C13.2874 10.5022 12.713 10.7332 12.2811 11.1464L10.8516 12.3509C9.68465 11.8681 8.62463 11.1595 7.73241 10.2657C6.8402 9.37196 6.13339 8.31071 5.65258 7.14295L6.85258 5.71795C7.26583 5.28606 7.49685 4.7116 7.49769 4.11385C7.49853 3.5161 7.26911 2.941 6.85708 2.50795C6.85708 2.50795 5.46808 0.704197 5.44558 0.680197C5.01732 0.249593 4.43692 0.00463216 3.82965 -0.00182228C3.22237 -0.00827672 2.6369 0.224292 2.19958 0.645697L1.33783 1.3957C-4.45217 7.55245 10.4878 22.4992 16.6378 16.6207L17.3218 15.8339C17.7565 15.3981 18.0005 14.8077 18.0005 14.1922C18.0005 13.5767 17.7565 12.9863 17.3218 12.5504C17.2971 12.5309 15.4911 11.1419 15.4911 11.1419Z" fill="#BEBEBE"/>
</g>
<defs>
<clipPath id="clip0_807_112">
<rect width="18" height="18" fill="white"/>
</clipPath>
</defs>
</svg>
