<svg width="66" height="52" viewBox="0 0 66 52" fill="none" xmlns="http://www.w3.org/2000/svg">
<g clip-path="url(#clip0_749_3986)">
<path d="M0.268 48.0716C0.448 48.4779 0.696 48.8364 1.008 49.1391C1.32 49.4418 1.688 49.6808 2.108 49.8521C2.92 50.1867 3.9 50.1947 4.732 49.876C5.132 49.7207 5.48 49.4976 5.768 49.2029C5.84 49.1272 5.896 49.0475 5.932 48.9639C5.968 48.8842 5.984 48.8045 5.988 48.7249C5.988 48.6492 5.976 48.5775 5.948 48.5058C5.92 48.4381 5.88 48.3863 5.824 48.3345C5.748 48.2708 5.676 48.223 5.604 48.1951C5.44 48.1314 5.308 48.1394 5.16 48.231C5.048 48.2987 4.944 48.3704 4.856 48.4461C4.612 48.6492 4.364 48.7926 4.12 48.8723C3.88 48.9519 3.604 48.9878 3.3 48.9878C2.988 48.9798 2.692 48.9081 2.428 48.7727C2.168 48.6412 1.94 48.466 1.744 48.2589C1.552 48.0477 1.396 47.8088 1.284 47.5459C1.168 47.279 1.112 47.0002 1.112 46.7253C1.112 46.7014 1.112 46.6815 1.12 46.6576C1.128 46.3788 1.192 46.108 1.304 45.853C1.424 45.5862 1.588 45.3432 1.788 45.1361C1.992 44.9289 2.232 44.7616 2.504 44.6382C3 44.4191 3.592 44.3952 4.124 44.5744C4.364 44.6541 4.604 44.7895 4.84 44.9688C4.944 45.0524 5.052 45.1281 5.164 45.1918C5.308 45.2795 5.448 45.2914 5.604 45.2317C5.668 45.2078 5.74 45.16 5.816 45.0962C5.876 45.0444 5.92 44.9847 5.948 44.917C5.976 44.8493 5.992 44.7776 5.992 44.7019C5.992 44.6262 5.972 44.5426 5.936 44.4629C5.9 44.3793 5.844 44.2996 5.772 44.2279C5.484 43.9371 5.136 43.7141 4.736 43.5667C3.892 43.256 2.908 43.2719 2.108 43.6025C1.692 43.7778 1.32 44.0208 1.008 44.3235C0.696 44.6262 0.448 44.9887 0.268 45.4029C0.096 45.7933 0.008 46.2195 0 46.6696C0.004 46.6895 0.008 46.7094 0.008 46.7293C0.008 46.7492 0.008 46.7692 0 46.7891C0.004 47.2431 0.096 47.6693 0.268 48.0637V48.0716Z" fill="white"/>
<path d="M6.83599 45.419C6.65599 45.8253 6.56799 46.2634 6.56799 46.7294C6.56799 47.1955 6.65999 47.6296 6.83599 48.0359C7.01599 48.4462 7.26399 48.8086 7.57199 49.1153C7.87999 49.422 8.24399 49.665 8.65199 49.8442C9.45999 50.1948 10.472 50.1948 11.284 49.8442C11.696 49.665 12.06 49.422 12.364 49.1153C12.668 48.8086 12.912 48.4462 13.088 48.0359C13.264 47.6256 13.352 47.1875 13.352 46.7254C13.352 46.2634 13.264 45.8173 13.088 45.411C12.912 45.0047 12.668 44.6423 12.364 44.3356C12.06 44.0289 11.696 43.7859 11.284 43.6066C10.876 43.4314 10.428 43.3438 9.95999 43.3438C9.49199 43.3438 9.05599 43.4314 8.64799 43.6066C8.23999 43.7819 7.87599 44.0289 7.56799 44.3356C7.25999 44.6423 7.01199 45.0047 6.83199 45.415L6.83599 45.419ZM7.86399 45.8452C7.98399 45.5703 8.14799 45.3274 8.35599 45.1242C8.56399 44.9211 8.80399 44.7618 9.07999 44.6423C9.63599 44.4033 10.3 44.4033 10.856 44.6423C11.132 44.7618 11.372 44.9251 11.576 45.1242C11.78 45.3274 11.944 45.5703 12.06 45.8452C12.176 46.12 12.236 46.4187 12.236 46.7294C12.236 47.0401 12.176 47.3309 12.06 47.6057C11.944 47.8806 11.78 48.1235 11.576 48.3306C11.372 48.5378 11.128 48.7011 10.852 48.8206C10.576 48.9401 10.276 48.9998 9.95999 48.9998C9.64399 48.9998 9.34399 48.9401 9.07199 48.8206C8.79999 48.7011 8.55599 48.5378 8.35199 48.3346C8.14399 48.1275 7.97999 47.8845 7.86399 47.6137C7.74399 47.3388 7.68399 47.0401 7.68399 46.7334C7.68399 46.4267 7.74399 46.12 7.86399 45.8452Z" fill="white"/>
<path d="M23.628 49.86C23.676 49.8122 23.716 49.7565 23.744 49.6927C23.772 49.629 23.788 49.5573 23.788 49.4856V45.8888C23.788 45.8888 23.78 45.845 23.78 45.8211C23.768 45.4905 23.688 45.1679 23.552 44.8692C23.412 44.5704 23.224 44.3035 22.992 44.0765C22.76 43.8535 22.488 43.6702 22.184 43.5428C21.568 43.2839 20.8 43.2878 20.172 43.5587C19.848 43.6981 19.564 43.8893 19.324 44.1283C19.224 44.2279 19.032 44.2279 18.932 44.1283C18.692 43.8893 18.408 43.6941 18.088 43.5587C17.46 43.2839 16.712 43.2839 16.084 43.5507C15.768 43.6862 15.492 43.8694 15.256 44.0964C15.02 44.3235 14.832 44.5943 14.696 44.901C14.56 45.2037 14.492 45.5304 14.492 45.8729V49.4856C14.492 49.5573 14.508 49.625 14.536 49.6888C14.564 49.7525 14.608 49.8083 14.66 49.8561C14.716 49.9078 14.784 49.9477 14.856 49.9795C14.924 50.0074 14.996 50.0233 15.072 50.0233C15.232 50.0233 15.352 49.9755 15.456 49.872C15.56 49.7684 15.608 49.6449 15.608 49.4896V45.8849C15.608 45.6857 15.648 45.4985 15.728 45.3232C15.808 45.152 15.916 45.0046 16.052 44.8731C16.188 44.7457 16.348 44.6421 16.524 44.5704C16.704 44.4987 16.9 44.4629 17.096 44.4629C17.292 44.4629 17.48 44.4987 17.656 44.5664C17.832 44.6341 17.988 44.7337 18.12 44.8532C18.256 44.9767 18.364 45.1281 18.44 45.2993C18.52 45.4746 18.564 45.6618 18.568 45.861V49.4816C18.568 49.5533 18.584 49.621 18.612 49.6848C18.64 49.7485 18.684 49.8043 18.736 49.8521C18.792 49.9039 18.86 49.9437 18.932 49.9755C19 50.0034 19.072 50.0194 19.148 50.0194C19.308 50.0194 19.428 49.9716 19.532 49.868C19.636 49.7644 19.684 49.641 19.684 49.4856V45.9048C19.684 45.7016 19.724 45.5104 19.804 45.3352C19.884 45.1639 19.992 45.0086 20.128 44.8811C20.264 44.7536 20.424 44.6501 20.604 44.5784C20.968 44.427 21.392 44.431 21.74 44.5704C21.912 44.6381 22.064 44.7337 22.2 44.8572C22.336 44.9807 22.448 45.1281 22.528 45.2993C22.612 45.4706 22.656 45.6618 22.664 45.8649V49.4936C22.664 49.5653 22.68 49.633 22.708 49.6967C22.74 49.7644 22.78 49.8202 22.828 49.868C22.88 49.9158 22.944 49.9556 23.02 49.9875C23.16 50.0433 23.32 50.0472 23.444 49.9875C23.512 49.9556 23.572 49.9158 23.624 49.868L23.628 49.86Z" fill="white"/>
<path d="M34.128 49.8596C34.176 49.8118 34.216 49.756 34.244 49.6923C34.272 49.6286 34.288 49.5569 34.288 49.4852V45.8884C34.288 45.8884 34.28 45.8446 34.28 45.8207C34.268 45.4901 34.188 45.1675 34.052 44.8687C33.912 44.57 33.724 44.3031 33.492 44.0761C33.26 43.853 32.988 43.6698 32.684 43.5423C32.068 43.2834 31.3 43.2874 30.672 43.5583C30.348 43.6977 30.064 43.8889 29.824 44.1278C29.772 44.1796 29.692 44.1995 29.628 44.2075C29.556 44.2075 29.484 44.1796 29.432 44.1278C29.192 43.8889 28.908 43.6937 28.588 43.5583C27.96 43.2874 27.212 43.2834 26.584 43.5503C26.268 43.6857 25.992 43.8689 25.756 44.096C25.52 44.323 25.332 44.5939 25.196 44.9006C25.06 45.2033 24.992 45.5299 24.992 45.8725V49.4852C24.992 49.5609 25.004 49.6246 25.036 49.6883C25.068 49.7521 25.108 49.8078 25.16 49.8556C25.216 49.9074 25.284 49.9472 25.356 49.9791C25.424 50.007 25.496 50.0229 25.572 50.0229C25.732 50.0229 25.852 49.9751 25.956 49.8715C26.06 49.768 26.108 49.6445 26.108 49.4892V45.8844C26.108 45.6853 26.148 45.4981 26.232 45.3228C26.312 45.1555 26.42 45.0041 26.552 44.8727C26.688 44.7452 26.848 44.6417 27.024 44.57C27.204 44.4983 27.4 44.4624 27.596 44.4624C27.792 44.4624 27.98 44.4983 28.156 44.566C28.332 44.6337 28.488 44.7333 28.62 44.8528C28.752 44.9763 28.86 45.1276 28.94 45.2989C29.02 45.4742 29.064 45.6614 29.068 45.8605V49.4812C29.068 49.5569 29.084 49.6206 29.112 49.6843C29.144 49.7481 29.184 49.8038 29.236 49.8516C29.292 49.9034 29.36 49.9432 29.432 49.9751C29.5 50.003 29.572 50.0189 29.648 50.0189C29.808 50.0189 29.928 49.9711 30.032 49.8676C30.136 49.764 30.184 49.6405 30.184 49.4852V45.9043C30.184 45.7012 30.224 45.51 30.304 45.3347C30.384 45.1635 30.492 45.0081 30.628 44.8807C30.764 44.7532 30.924 44.6496 31.104 44.5779C31.468 44.4266 31.896 44.4306 32.24 44.57C32.412 44.6377 32.568 44.7333 32.7 44.8568C32.836 44.9802 32.948 45.1276 33.028 45.2989C33.112 45.4702 33.156 45.6614 33.164 45.8645V49.4932C33.164 49.5688 33.176 49.6326 33.208 49.6963C33.24 49.764 33.28 49.8198 33.332 49.8676C33.384 49.9154 33.448 49.9552 33.524 49.9871C33.66 50.0428 33.824 50.0428 33.948 49.9871C34.016 49.9552 34.076 49.9154 34.128 49.8676V49.8596Z" fill="white"/>
<path d="M41.004 49.1473C41.276 48.8486 41.492 48.4941 41.648 48.0958C41.8 47.6935 41.88 47.2593 41.88 46.8053V43.9892C41.88 43.9095 41.864 43.8338 41.84 43.7701C41.812 43.7024 41.776 43.6466 41.728 43.5988C41.68 43.551 41.62 43.5112 41.552 43.4793C41.428 43.4236 41.26 43.4236 41.128 43.4793C41.056 43.5112 40.992 43.551 40.936 43.6028C40.884 43.6546 40.84 43.7103 40.808 43.7781C40.78 43.8418 40.764 43.9095 40.764 43.9892V46.8252C40.764 47.1159 40.72 47.3908 40.628 47.6497C40.536 47.9126 40.404 48.1436 40.24 48.3427C40.068 48.5419 39.856 48.7052 39.612 48.8207C39.124 49.0517 38.464 49.0557 37.932 48.8287C37.672 48.7172 37.44 48.5618 37.252 48.3706C37.06 48.1755 36.908 47.9484 36.8 47.6895C36.692 47.4306 36.636 47.1478 36.636 46.853V43.9931C36.636 43.9135 36.62 43.8418 36.592 43.7781C36.564 43.7103 36.524 43.6546 36.472 43.6068C36.42 43.559 36.356 43.5152 36.288 43.4873C36.22 43.4594 36.148 43.4435 36.072 43.4435C35.996 43.4435 35.924 43.4594 35.856 43.4873C35.788 43.5152 35.728 43.555 35.68 43.6028C35.632 43.6546 35.588 43.7103 35.56 43.7781C35.532 43.8418 35.516 43.9135 35.516 43.9931V46.8451C35.516 47.2912 35.6 47.7174 35.772 48.1077C35.944 48.5021 36.176 48.8526 36.468 49.1513C36.76 49.4461 37.108 49.6811 37.5 49.8563C38.28 50.1949 39.264 50.1989 40.02 49.8563C40.4 49.6851 40.728 49.4461 41 49.1513L41.004 49.1473Z" fill="white"/>
<path d="M49.32 49.8889C49.368 49.8411 49.408 49.7774 49.436 49.7097C49.464 49.646 49.48 49.5743 49.48 49.4946V46.6028C49.48 46.1488 49.396 45.7226 49.236 45.3322C49.072 44.9419 48.848 44.5914 48.564 44.2966C48.284 44.0058 47.944 43.7708 47.56 43.6035C46.788 43.265 45.824 43.265 45.044 43.6035C44.656 43.7708 44.316 44.0058 44.032 44.2966C43.748 44.5874 43.52 44.9379 43.356 45.3282C43.192 45.7186 43.112 46.1488 43.112 46.5989V49.4906C43.112 49.5663 43.128 49.638 43.156 49.7017C43.188 49.7694 43.228 49.8252 43.284 49.877C43.336 49.9288 43.4 49.9686 43.472 49.9965C43.608 50.0523 43.784 50.0523 43.908 49.9965C43.972 49.9686 44.028 49.9328 44.08 49.881C44.128 49.8332 44.164 49.7774 44.192 49.7097C44.22 49.642 44.232 49.5703 44.232 49.4866V46.5949C44.232 46.3001 44.284 46.0173 44.388 45.7624C44.488 45.5035 44.632 45.2725 44.812 45.0813C44.992 44.8861 45.216 44.7308 45.472 44.6192C45.976 44.4041 46.624 44.4002 47.124 44.6192C47.368 44.7268 47.588 44.8781 47.768 45.0653C47.952 45.2526 48.096 45.4756 48.204 45.7266C48.308 45.9735 48.368 46.2444 48.38 46.5272V46.5511L48.372 46.6028C48.372 46.6028 48.372 46.6148 48.372 46.6307V49.4827C48.372 49.5583 48.388 49.63 48.416 49.6938C48.448 49.7615 48.488 49.8212 48.544 49.873C48.596 49.9208 48.652 49.9606 48.724 49.9885C48.868 50.0443 49.032 50.0443 49.164 49.9885C49.228 49.9606 49.284 49.9248 49.328 49.877L49.32 49.8889Z" fill="white"/>
<path d="M50.696 43.7626C50.668 43.8263 50.652 43.894 50.652 43.9657V49.4425C50.652 49.5182 50.668 49.5899 50.696 49.6576C50.724 49.7253 50.764 49.7851 50.812 49.8329C50.864 49.8846 50.928 49.9245 50.996 49.9524C51.128 50.0081 51.3 50.0081 51.428 49.9524C51.496 49.9245 51.556 49.8846 51.604 49.8329C51.652 49.7851 51.692 49.7253 51.72 49.6576C51.748 49.5899 51.764 49.5182 51.764 49.4425V43.9657C51.764 43.89 51.748 43.8183 51.724 43.7506C51.696 43.6829 51.66 43.6231 51.608 43.5753C51.56 43.5236 51.5 43.4837 51.436 43.4558C51.376 43.428 51.304 43.416 51.228 43.416C51.152 43.416 51.072 43.4319 51.004 43.4598C50.936 43.4877 50.876 43.5275 50.824 43.5793C50.772 43.6311 50.728 43.6948 50.696 43.7626Z" fill="white"/>
<path d="M62.968 50.7773C62.812 50.7096 62.636 50.7096 62.48 50.7773C62.4 50.8132 62.332 50.857 62.272 50.9128C62.216 50.9685 62.168 51.0362 62.132 51.1199C62.1 51.1956 62.08 51.2792 62.08 51.3708C62.08 51.4545 62.096 51.5341 62.128 51.6098C62.164 51.6895 62.208 51.7572 62.268 51.813C62.324 51.8687 62.396 51.9165 62.476 51.9484C62.632 52.0161 62.808 52.0161 62.964 51.9484C63.044 51.9125 63.116 51.8647 63.176 51.809C63.236 51.7532 63.28 51.6855 63.316 51.6058C63.348 51.5302 63.364 51.4505 63.364 51.3669C63.364 51.2792 63.348 51.1916 63.312 51.1159C63.276 51.0363 63.232 50.9685 63.172 50.9128C63.112 50.857 63.04 50.8092 62.96 50.7734L62.968 50.7773Z" fill="white"/>
<path d="M51.452 41.4688C51.296 41.401 51.12 41.401 50.964 41.4688C50.884 41.5046 50.816 41.5484 50.756 41.6042C50.7 41.6599 50.652 41.7277 50.616 41.8113C50.584 41.887 50.568 41.9706 50.568 42.0622C50.568 42.1459 50.584 42.2256 50.616 42.3012C50.652 42.3809 50.7 42.4486 50.756 42.5044C50.812 42.5601 50.884 42.6079 50.964 42.6398C51.12 42.7075 51.296 42.7075 51.452 42.6398C51.532 42.604 51.604 42.5562 51.664 42.5004C51.724 42.4446 51.768 42.3769 51.804 42.2972C51.836 42.2216 51.852 42.1419 51.852 42.0583C51.852 41.9706 51.836 41.883 51.8 41.8073C51.764 41.7277 51.72 41.6599 51.66 41.6042C51.6 41.5484 51.528 41.5006 51.448 41.4648L51.452 41.4688Z" fill="white"/>
<path d="M58.536 49.2629C58.604 49.1992 58.656 49.1275 58.692 49.0478C58.728 48.9642 58.752 48.8805 58.756 48.7969C58.76 48.7132 58.752 48.6296 58.724 48.5539C58.7 48.4862 58.66 48.4264 58.604 48.3786C58.44 48.2313 58.244 48.1994 58.056 48.291C57.972 48.3308 57.896 48.3866 57.828 48.4503C57.616 48.6375 57.384 48.773 57.14 48.8526C56.612 49.0239 55.976 49.004 55.48 48.7969C55.204 48.6814 54.964 48.522 54.76 48.3229C54.556 48.1237 54.392 47.8847 54.272 47.6179C54.152 47.347 54.092 47.0522 54.092 46.7416V44.8018C54.092 44.6504 54.216 44.5269 54.368 44.5269H57.048C57.128 44.5269 57.204 44.511 57.272 44.4831C57.344 44.4513 57.404 44.4114 57.456 44.3636C57.508 44.3158 57.548 44.2561 57.576 44.1884C57.604 44.1246 57.62 44.0529 57.62 43.9812C57.62 43.9016 57.604 43.8259 57.576 43.7582C57.548 43.6905 57.504 43.6307 57.456 43.5789C57.404 43.5272 57.344 43.4873 57.272 43.4555C57.204 43.4276 57.128 43.4116 57.048 43.4116H54.368C54.216 43.4116 54.092 43.2882 54.092 43.1368V41.9857C54.092 41.906 54.076 41.8303 54.048 41.7626C54.016 41.6909 53.976 41.6312 53.928 41.5754C53.88 41.5276 53.82 41.4878 53.756 41.4559C53.692 41.428 53.62 41.4121 53.548 41.4121C53.476 41.4121 53.4 41.428 53.332 41.4559C53.26 41.4838 53.2 41.5276 53.148 41.5754C53.096 41.6272 53.052 41.6909 53.02 41.7626C52.992 41.8264 52.976 41.902 52.976 41.9777V46.7177C52.976 47.1837 53.064 47.6258 53.24 48.0321C53.416 48.4384 53.664 48.7969 53.968 49.0996C54.276 49.4023 54.64 49.6413 55.048 49.8166C55.824 50.1472 56.792 50.1591 57.564 49.8683C57.928 49.7329 58.252 49.5258 58.532 49.2589L58.536 49.2629Z" fill="white"/>
<path d="M65.284 48.8531C65.504 48.5783 65.684 48.2596 65.812 47.9131C65.94 47.5705 66.004 47.2001 66.004 46.8177V43.9658C66.004 43.8901 65.992 43.8184 65.964 43.7507C65.936 43.683 65.896 43.6232 65.848 43.5754C65.8 43.5236 65.74 43.4838 65.676 43.4559C65.552 43.4002 65.384 43.4041 65.244 43.4559C65.172 43.4838 65.112 43.5236 65.06 43.5754C65.008 43.6272 64.964 43.6909 64.932 43.7586C64.904 43.8224 64.888 43.8901 64.888 43.9618V46.7858C64.888 47.0886 64.832 47.3753 64.72 47.6382C64.608 47.8971 64.456 48.1282 64.268 48.3233C64.076 48.5185 63.848 48.6778 63.588 48.7894C63.068 49.0164 62.436 49.0204 61.896 48.8013C61.632 48.6938 61.4 48.5424 61.208 48.3512C61.012 48.16 60.86 47.933 60.748 47.6741C60.636 47.4152 60.58 47.1324 60.58 46.8336V43.9658C60.58 43.8941 60.564 43.8224 60.536 43.7586C60.508 43.6909 60.464 43.6312 60.412 43.5794C60.36 43.5276 60.3 43.4878 60.228 43.4559C60.16 43.428 60.088 43.4121 60.012 43.4121C59.936 43.4121 59.864 43.428 59.796 43.4559C59.728 43.4838 59.668 43.5236 59.62 43.5754C59.568 43.6272 59.528 43.6909 59.496 43.7586C59.468 43.8224 59.452 43.8941 59.452 43.9658V46.8177C59.452 47.1961 59.516 47.5625 59.64 47.9051C59.764 48.2477 59.94 48.5623 60.164 48.8411C60.388 49.12 60.652 49.359 60.956 49.5581C61.256 49.7533 61.592 49.9007 61.948 49.9883C61.964 49.9883 62.812 50.2153 63.464 50.0002H63.476C63.84 49.9086 64.18 49.7652 64.484 49.5701C64.792 49.3709 65.06 49.1319 65.28 48.8571L65.284 48.8531Z" fill="white"/>
<path d="M45.72 17.9959C45.72 8.05791 37.628 0 27.648 0C17.668 0 9.576 8.05791 9.576 17.9959C9.576 27.9338 17.668 35.9917 27.648 35.9917C28.68 35.9917 29.692 35.9001 30.676 35.7368H30.664L30.18 37.9753C34.124 35.9957 38.724 32.2197 38.724 32.2197L38.708 32.2277C42.972 28.9376 45.72 23.7874 45.72 17.9998V17.9959Z" fill="white"/>
<path d="M22.776 13.7578C22.032 13.7578 21.428 14.3593 21.428 15.1001C21.428 15.841 22.032 16.4425 22.776 16.4425C23.52 16.4425 24.124 15.841 24.124 15.1001C24.124 14.3593 23.52 13.7578 22.776 13.7578Z" fill="#E52D42"/>
<path d="M33.868 15.0989C33.868 14.5134 33.392 14.0354 32.804 14.0234H30.052V16.1783H32.804C33.392 16.1664 33.868 15.6884 33.868 15.0989Z" fill="#231916"/>
<path d="M33.252 24.0101L33.168 23.9703C32.628 23.7512 32.088 23.9703 31.792 24.492L31.52 25.0736C31.52 25.0736 31.516 25.0895 31.512 25.0975C31.444 25.2449 31.384 25.3365 31.372 25.3564C31.232 25.6033 31.048 25.8184 30.876 26.0136C30.54 26.396 30.124 26.7027 29.64 26.9258C29.152 27.1488 28.6 27.2643 27.996 27.2643C27.392 27.2643 26.848 27.1568 26.336 26.9417C25.82 26.7266 25.368 26.4318 24.996 26.0614C24.62 25.691 24.32 25.2488 24.108 24.7549C23.896 24.257 23.788 23.7193 23.788 23.1497V18.4775C23.788 18.3261 23.76 18.1827 23.7 18.0513C23.64 17.9199 23.56 17.8123 23.46 17.7127C23.356 17.6132 23.232 17.5375 23.088 17.4777C22.812 17.3622 22.492 17.3662 22.22 17.4777C22.08 17.5375 21.956 17.6132 21.864 17.7087C21.76 17.8083 21.68 17.9238 21.624 18.0513C21.568 18.1788 21.536 18.3222 21.536 18.4735V23.1298C21.536 23.9902 21.708 24.8107 22.04 25.5715C22.376 26.3362 22.844 27.0134 23.424 27.583C24.004 28.1526 24.692 28.6106 25.476 28.9452C26.256 29.2758 27.104 29.4431 28 29.4431C28.896 29.4431 29.728 29.2758 30.48 28.9412C31.236 28.6066 31.888 28.1486 32.428 27.579C32.832 27.1488 33.188 26.6111 33.544 25.8861L33.772 25.3962C34.016 24.8704 33.78 24.2451 33.252 24.0061V24.0101Z" fill="#231916"/>
<path d="M31.644 6.67531C31.644 6.67531 31.636 6.67531 31.628 6.67531H31.564C30.78 6.64743 30.084 6.69921 29.5 6.82667C28.912 6.95811 28.416 7.20905 28.036 7.56753C27.656 7.92602 27.368 8.42391 27.184 9.03732C27 9.64674 26.908 10.4195 26.908 11.3316V23.1337C26.92 23.6834 27.372 24.1295 27.928 24.1295C28.484 24.1295 28.936 23.6834 28.948 23.1337V11.5746C28.948 10.8735 28.996 10.304 29.088 9.88573C29.18 9.47148 29.332 9.16079 29.54 8.95367C29.748 8.74655 30.016 8.61112 30.344 8.54739C30.68 8.48366 31.088 8.45976 31.56 8.47171H31.628C31.632 8.47171 31.636 8.47171 31.644 8.47171C32.14 8.47171 32.548 8.06941 32.548 7.57152C32.548 7.07362 32.144 6.67133 31.644 6.67133V6.67531Z" fill="#231916"/>
</g>
<defs>
<clipPath id="clip0_749_3986">
<rect width="66" height="52" fill="white"/>
</clipPath>
</defs>
</svg>
