<svg width="37" height="38" viewBox="0 0 37 38" fill="none" xmlns="http://www.w3.org/2000/svg">
<path d="M36.144 17.9959C36.144 8.05791 28.052 0 18.072 0C8.092 0 0 8.05791 0 17.9959C0 27.9338 8.092 35.9917 18.072 35.9917C19.104 35.9917 20.116 35.9001 21.1 35.7368H21.088L20.604 37.9753C24.548 35.9957 29.148 32.2197 29.148 32.2197L29.132 32.2277C33.396 28.9376 36.144 23.7874 36.144 17.9998V17.9959Z" fill="#231916"/>
<path d="M13.2 13.7578C12.456 13.7578 11.852 14.3593 11.852 15.1001C11.852 15.841 12.456 16.4425 13.2 16.4425C13.944 16.4425 14.548 15.841 14.548 15.1001C14.548 14.3593 13.944 13.7578 13.2 13.7578Z" fill="#E52D42"/>
<path d="M24.292 15.0989C24.292 14.5134 23.816 14.0354 23.228 14.0234H20.476V16.1783H23.228C23.816 16.1664 24.292 15.6884 24.292 15.0989Z" fill="white"/>
<path d="M23.676 24.0101L23.592 23.9703C23.052 23.7512 22.512 23.9703 22.216 24.492L21.944 25.0736C21.944 25.0736 21.94 25.0895 21.936 25.0975C21.868 25.2449 21.808 25.3365 21.796 25.3564C21.656 25.6033 21.472 25.8184 21.3 26.0136C20.964 26.396 20.548 26.7027 20.064 26.9258C19.576 27.1488 19.024 27.2643 18.42 27.2643C17.816 27.2643 17.272 27.1568 16.76 26.9417C16.244 26.7266 15.792 26.4318 15.42 26.0614C15.044 25.691 14.744 25.2488 14.532 24.7549C14.32 24.257 14.212 23.7193 14.212 23.1497V18.4775C14.212 18.3261 14.184 18.1827 14.124 18.0513C14.064 17.9199 13.984 17.8123 13.884 17.7127C13.78 17.6132 13.656 17.5375 13.512 17.4777C13.236 17.3622 12.916 17.3662 12.644 17.4777C12.504 17.5375 12.38 17.6132 12.288 17.7087C12.184 17.8083 12.104 17.9238 12.048 18.0513C11.992 18.1788 11.96 18.3222 11.96 18.4735V23.1298C11.96 23.9902 12.132 24.8107 12.464 25.5715C12.8 26.3362 13.268 27.0134 13.848 27.583C14.428 28.1526 15.116 28.6106 15.9 28.9452C16.68 29.2758 17.528 29.4431 18.424 29.4431C19.32 29.4431 20.152 29.2758 20.904 28.9412C21.66 28.6066 22.312 28.1486 22.852 27.579C23.256 27.1488 23.612 26.6111 23.968 25.8861L24.196 25.3962C24.44 24.8704 24.204 24.2451 23.676 24.0061V24.0101Z" fill="white"/>
<path d="M22.068 6.67531C22.068 6.67531 22.06 6.67531 22.052 6.67531H21.988C21.204 6.64743 20.508 6.69921 19.924 6.82667C19.336 6.95811 18.84 7.20905 18.46 7.56753C18.08 7.92602 17.792 8.42391 17.608 9.03732C17.424 9.64674 17.332 10.4195 17.332 11.3316V23.1337C17.344 23.6834 17.796 24.1295 18.352 24.1295C18.908 24.1295 19.36 23.6834 19.372 23.1337V11.5746C19.372 10.8735 19.42 10.304 19.512 9.88573C19.604 9.47148 19.756 9.16079 19.964 8.95367C20.172 8.74655 20.44 8.61112 20.768 8.54739C21.104 8.48366 21.512 8.45976 21.984 8.47171H22.052C22.056 8.47171 22.06 8.47171 22.068 8.47171C22.564 8.47171 22.972 8.06941 22.972 7.57152C22.972 7.07362 22.568 6.67133 22.068 6.67133V6.67531Z" fill="white"/>
</svg>
